<?xml version="1.0" standalone="no"?><!DOCTYPE svg PUBLIC "-//W3C//DTD SVG 1.1//EN" "http://www.w3.org/Graphics/SVG/1.1/DTD/svg11.dtd"><svg t="1638246431462" class="icon" viewBox="0 0 1024 1024" version="1.1" xmlns="http://www.w3.org/2000/svg" p-id="14180" xmlns:xlink="http://www.w3.org/1999/xlink" width="200" height="200"><defs><style type="text/css"></style></defs><path d="M294.4 185.6H0v-76.8h294.4C307.2 64 352 38.4 396.8 38.4c44.8 0 89.6 32 102.4 70.4H1024v70.4H499.2C486.4 224 448 256 396.8 256s-89.6-32-102.4-70.4z m294.4 364.8H0v-76.8h588.8c12.8-44.8 57.6-70.4 102.4-70.4 44.8 0 89.6 32 102.4 70.4H1024V544H793.6c-12.8 44.8-57.6 70.4-102.4 70.4-51.2 6.4-89.6-25.6-102.4-64zM294.4 915.2H0v-70.4h294.4C307.2 800 352 768 396.8 768c44.8 0 89.6 32 102.4 70.4H1024v70.4H499.2c-12.8 44.8-57.6 70.4-102.4 70.4s-89.6-25.6-102.4-64z" p-id="14181"></path></svg>