<?xml version="1.0" standalone="no"?><!DOCTYPE svg PUBLIC "-//W3C//DTD SVG 1.1//EN" "http://www.w3.org/Graphics/SVG/1.1/DTD/svg11.dtd"><svg t="1638772463372" class="icon" viewBox="0 0 1024 1024" version="1.1" xmlns="http://www.w3.org/2000/svg" p-id="1711" xmlns:xlink="http://www.w3.org/1999/xlink" width="200" height="200"><defs><style type="text/css"></style></defs><path d="M202.667 256H160a32 32 0 0 1 0-64h704a32 32 0 0 1 0 64H266.667v565.333A53.333 53.333 0 0 0 320 874.667h384a53.333 53.333 0 0 0 53.333-53.334V352a32 32 0 0 1 64 0v469.333c0 64.8-52.533 117.334-117.333 117.334H320c-64.8 0-117.333-52.534-117.333-117.334V256z m224-106.667a32 32 0 0 1 0-64h170.666a32 32 0 0 1 0 64H426.667z m-32 288a32 32 0 0 1 64 0v256a32 32 0 0 1-64 0v-256z m170.666 0a32 32 0 0 1 64 0v256a32 32 0 0 1-64 0v-256z" p-id="1712"></path></svg>