<?xml version="1.0" standalone="no"?><!DOCTYPE svg PUBLIC "-//W3C//DTD SVG 1.1//EN" "http://www.w3.org/Graphics/SVG/1.1/DTD/svg11.dtd"><svg t="1639032322187" class="icon" viewBox="0 0 1024 1024" version="1.1" xmlns="http://www.w3.org/2000/svg" p-id="11573" xmlns:xlink="http://www.w3.org/1999/xlink" width="200" height="200"><defs><style type="text/css"></style></defs><path d="M162.048 716.8C71.8336 716.8 0 641.8432 0 548.5568 0 455.3216 73.6768 380.416 162.048 380.416c88.4224 0 162.0992 74.9568 162.0992 168.192C324.096 641.8432 252.3136 716.8 162.048 716.8z m173.1584-502.8352c-57.088 0-104.96-47.5648-104.96-107.9296A104.96 104.96 0 0 1 335.1552 0c57.088 0 104.96 47.5648 104.96 107.8784 0 60.3648-46.08 106.0864-104.96 106.0864zM872.96 310.784c-82.8416 0-151.04-69.4784-151.04-155.392C721.92 69.4784 790.1696 0 872.96 0 955.904 0 1024 69.4784 1024 155.4432c0 85.9136-68.096 155.392-151.04 155.392zM769.8432 1024c-108.6464 0-198.912-91.4432-198.912-206.6432 0-115.2 90.2656-204.8 198.912-204.8S968.7552 704 968.7552 819.2c0 115.2-88.4224 204.8-198.912 204.8z" p-id="11574"></path><path d="M295.168 443.7504l460.3392-257.024 18.7392 31.3344-460.3392 257.024-18.7392-31.3344z m19.712 126.1568l301.1584 153.9072-17.4592 32-301.1584-153.9072 17.4592-32zM199.7824 385.3312l90.1632-214.6816 34.6624 13.6704-90.112 214.6816-34.7136-13.6704z" p-id="11575"></path></svg>