<?xml version="1.0" standalone="no"?><!DOCTYPE svg PUBLIC "-//W3C//DTD SVG 1.1//EN" "http://www.w3.org/Graphics/SVG/1.1/DTD/svg11.dtd"><svg t="1639032540630" class="icon" viewBox="0 0 1024 1024" version="1.1" xmlns="http://www.w3.org/2000/svg" p-id="4425" xmlns:xlink="http://www.w3.org/1999/xlink" width="200" height="200"><defs><style type="text/css"></style></defs><path d="M352.52224 667.38176l212.992-60.45696-152.12544-151.20384-60.86656 211.6608zM921.4976 253.1328l-152.12544-151.1424-334.80704 332.63616 152.1664 151.20384L921.51808 253.1328zM877.1584 813.17888a95.08864 95.08864 0 0 1-95.17056 95.10912H210.88256a95.17056 95.17056 0 0 1-95.232-95.10912V242.11456a95.232 95.232 0 0 1 95.232-95.15008h380.68224l95.232-95.17056H179.0976A158.67904 158.67904 0 0 0 20.48 210.432v634.4704A158.67904 158.67904 0 0 0 179.11808 1003.52h634.61376a158.67904 158.67904 0 0 0 158.63808-158.6176V337.3056l-95.232 95.232v380.64128zM992.256 126.21824L897.14688 31.744c-15.79008-15.68768-42.1888-14.82752-59.00288 1.80224l-45.62944 45.38368 152.12544 151.20384 45.6704-45.32224c16.83456-16.75264 17.67424-42.96704 1.9456-58.5728z" p-id="4426"></path></svg>