<svg t="1639103477786" class="icon" viewBox="0 0 1024 1024" version="1.1" xmlns="http://www.w3.org/2000/svg" p-id="1106"
     width="200" height="200">
    <path d="M428.4416 233.472L790.528 595.5584 605.29813333 858.84053333a45.51146667 45.51146667 0 0 1-69.4048 6.00746667l-65.42186666-65.42293333v-139.60533334H330.88853333L159.152 488.10666667a45.51146667 45.51146667 0 0 1 6.00746667-69.4048l263.28213333-185.20746667z m40.9376-28.78613333l70.54186667-49.62986667a45.51146667 45.51146667 0 0 1 58.368 5.02933333l95.072 95.09546667 100.03413333-100.03306667a22.7552 22.7552 0 0 1 32.176 0l37.54666667 37.54666667a22.7552 22.7552 0 0 1 0 32.1984l-100.01066667 100.01066667 100.80746667 100.80746666a45.51146667 45.51146667 0 0 1 5.02933333 58.368l-49.60746667 70.54186667-349.9808-349.93493333z"
          p-id="1107"></path>
</svg>
