<?xml version="1.0" standalone="no"?><!DOCTYPE svg PUBLIC "-//W3C//DTD SVG 1.1//EN" "http://www.w3.org/Graphics/SVG/1.1/DTD/svg11.dtd"><svg t="1638243114576" class="icon" viewBox="0 0 1064 1024" version="1.1" xmlns="http://www.w3.org/2000/svg" p-id="3998" xmlns:xlink="http://www.w3.org/1999/xlink" width="207.8125" height="200"><defs><style type="text/css"></style></defs><path d="M878.00959619 715.03078731c-21.33946406 0-42.24710127 5.82966826-60.38384677 16.87724912l-2.66293477 1.61935224-103.63854463-106.87724912 1.97920899-2.87884775c22.81487432-32.60295878 34.87005176-71.25149971 34.87005175-111.73530586a195.04198301 195.04198301 0 0 0-34.65413876-111.55537793l-2.01519405-2.8428627 103.7105165-106.98520605 2.66293477 1.61935225a117.60095917 117.60095917 0 0 0 60.13194697 16.66133525C943.97121143 308.93322676 997.62574941 253.58736465 997.62574941 185.53858438 997.62574941 117.52579004 943.97121143 62.17992793 878.00959619 62.17992793c-65.96161523 0-119.65213916 55.34586123-119.65213916 123.35865645a127.38904453 127.38904453 0 0 0 16.19352247 62.11115595l1.54738125 2.7708917-103.7824875 107.05717705-2.77089083-2.01519404a181.36745332 181.36745332 0 0 0-228.94042412 11.58736465 193.31467383 193.31467383 0 0 0-62.11115596 115.83766494l-0.53978378 3.52658935H298.64134356l-0.7197126-3.20271855c-13.0627749-55.4178331-60.88764463-94.13834502-116.30547773-94.13834502C115.65453799 389.07317041 62 444.41903252 62 512.46781279c0 68.01279521 53.65453799 123.35865644 119.61615322 123.35865645 53.1147542 0 100.39984013-36.77728887 115.04598223-89.42423028l0.82766865-2.98680556h81.25549804l0.61175479 3.38264736c16.19352247 90.97161152 93.0947625 157.00519776 182.87884864 157.00519776 38.57656904 0 75.56977177-12.09116338 107.02119199-34.9780087l2.73490576-1.9792081 103.92642949 107.12914805-1.58336719 2.77089169a125.73370635 125.73370635 0 0 0-16.04957958 61.67932823c0 68.04878028 53.65453799 123.39464239 119.61615321 123.39464238 65.96161523 0 119.65213916-55.34586123 119.65213917-123.39464238 0-68.04878028-53.65453799-123.39464239-119.54418223-123.39464239z m-315.77369062-68.26469415a127.64094346 127.64094346 0 0 1-92.33906396-39.47620868 135.91763262 135.91763262 0 0 1-38.25269913-95.25389854c0-35.98560615 13.56657364-69.81207539 38.25269913-95.25389854a127.82087138 127.82087138 0 0 1 184.71411386 0 135.91763262 135.91763262 0 0 1 38.28868506 95.25389854c0 35.98560615-13.60255869 69.81207539-38.28868506 95.25389854a127.64094346 127.64094346 0 0 1-92.3750499 39.47620868z m315.77369062-527.58496582c35.48180742 0 64.34226299 29.76009609 64.34226299 66.39344297 0 36.59736094-28.86045557 66.35745703-64.34226299 66.35745703-13.02678896 0-25.62175107-4.03038809-35.84166328-11.15553779l-17.12914804-17.56097578a67.29308261 67.29308261 0 0 1-11.4074376-37.67692939c0-36.59736094 28.86045557-66.35745703 64.37824892-66.35745704z m0 785.63774532c-35.51779248 0-64.37824893-29.79608115-64.37824892-66.39344297s28.86045557-66.39344297 64.37824892-66.39344209c35.48180742 0 64.34226299 29.79608115 64.34226299 66.39344209s-28.86045557 66.39344297-64.34226299 66.39344297zM181.61615323 445.96641377c35.51779248 0 64.37824893 29.79608115 64.37824892 66.39344209s-28.86045557 66.35745703-64.37824893 66.35745703c-35.48180742 0-64.34226299-29.76009609-64.34226299-66.35745703 0-36.59736094 28.86045557-66.39344297 64.34226299-66.39344209z" p-id="3999"></path></svg>