<svg t="1639103449505" class="icon" viewBox="0 0 1024 1024" version="1.1" xmlns="http://www.w3.org/2000/svg" p-id="979" width="200" height="200"><path d="M849.1625 367.69414062q0 8.99121094-0.44912109 17.08330079t-1.3491211 17.08242187q-8.09121094 74.62529297-32.81660156 143.40673828t-62.48759766 132.16816406-87.21298828 121.82783204-106.99277344 112.3875q-8.09208984 9.89033203-20.67978515 9.89033203-13.4859375 0-21.57802735-9.89033203-57.54199219-53.94550781-107.44277343-113.2866211t-88.11210938-124.07519531-62.93671875-134.41640625-31.91835937-145.20410156q0-7.19296875-0.4491211-13.48681641t-0.45-13.48681641q0-62.93671875 24.72539063-118.68134765t66.98320312-97.10244141T415.34667969 86.27539062 537.17451172 62t121.37871094 24.27539063 98.9015625 65.63496093 66.98320312 97.10244141 24.72451172 118.68134765zM537.17451172 507.95439453q29.67099609 0 55.7446289-11.23945312t45.40429688-30.12011719 30.56923828-44.50517578 11.23945313-54.39550781-11.23945313-54.39550782-30.56835937-44.50517578-45.40517578-30.12011719-55.74462891-11.23857421-55.74375 11.23857421-45.85429688 30.12011719-31.01923828 44.50517578-11.23857422 54.39550782 11.23857422 54.39550781 31.01923828 44.50605469 45.85429688 30.12011718 55.74375 11.23857422z" p-id="980"></path></svg>
